<?xml version="1.0" encoding="UTF-8" standalone="no"?>
<!DOCTYPE svg PUBLIC "-//W3C//DTD SVG 1.1//EN" "http://www.w3.org/Graphics/SVG/1.1/DTD/svg11.dtd">
<svg width="100%" height="100%" viewBox="0 0 1000 1000" version="1.1" xmlns="http://www.w3.org/2000/svg" xmlns:xlink="http://www.w3.org/1999/xlink" xml:space="preserve" xmlns:serif="http://www.serif.com/" style="fill-rule:evenodd;clip-rule:evenodd;stroke-linecap:round;stroke-linejoin:round;stroke-miterlimit:1.5;">
    <g transform="matrix(0.77904,0,0,0.77904,110.48,-1.99113e-13)">
        <g>
            <g transform="matrix(1.26218,0,0,1.26218,-137.182,1.27898e-13)">
                <path d="M454.166,516.164L454.166,131.902C463.791,76.978 482.357,31.449 514.324,0C522.132,66.598 535.125,116.828 554.175,147.934L563.832,516.164" style="fill:none;"/>
                <g>
                    <clipPath id="_clip1">
                        <path d="M454.166,516.164L454.166,131.902C463.791,76.978 482.357,31.449 514.324,0C522.132,66.598 535.125,116.828 554.175,147.934L563.832,516.164"/>
                    </clipPath>
                    <g clip-path="url(#_clip1)">
                        <g transform="matrix(0.792283,0,0,0.792283,108.687,-1.01331e-13)">
                            <rect x="406.33" y="0" width="98.935" height="651.489" style="fill:rgb(200,200,200);"/>
                        </g>
                        <g transform="matrix(0.792283,0,0,0.792283,108.687,-2.02662e-13)">
                            <rect x="505.264" y="0" width="113.724" height="651.489" style="fill:rgb(150,150,150);"/>
                        </g>
                    </g>
                </g>
                <path d="M454.166,516.164L454.166,131.902C463.791,76.978 482.357,31.449 514.324,0C522.132,66.598 535.125,116.828 554.175,147.934L563.832,516.164" style="fill:none;stroke:black;stroke-width:10.17px;"/>
            </g>
            <g transform="matrix(1.26218,0,0,1.26218,-130.385,-1.42109e-14)">
                <path d="M384.941,534.977C401.605,522.107 420.749,516.105 442.082,516.164L613.945,516.164L613.945,534.977L411.731,534.977C399.124,542.565 388.274,546.528 384.941,534.977Z" style="stroke:black;stroke-width:10.17px;"/>
            </g>
            <g transform="matrix(1.30009,0,0,1.30009,-146.244,-16.45)">
                <path d="M419.369,526.421L441.449,513.768L580.654,513.768L580.654,526.421L557.283,552.669C555.51,707.028 557.884,856.214 547.786,1000L419.369,978.705C410.607,971.913 412.554,966.415 419.369,961.503L441.449,961.503C450.765,950.538 455.656,938.586 450.815,924.46C450.195,898.393 450.206,870.499 450.467,840.419C450.82,799.67 451.632,754.91 451.956,705.246C452.099,683.16 452.147,660.105 452.014,636.001C451.868,609.523 451.505,581.78 450.815,552.669C446.196,538.214 435.294,529.873 419.369,526.421Z" style="stroke:black;stroke-width:9.87px;"/>
            </g>
        </g>
    </g>
</svg>
